<svg t="1589080681735" class="icon" viewBox="0 0 1024 1024" version="1.1" xmlns="http://www.w3.org/2000/svg" p-id="1998" width="200" height="200"><path d="M63.960025 991.348407a31.980012 31.980012 0 0 0 31.980012 31.980013h319.800125a31.980012 31.980012 0 0 0 31.980013-31.980013l31.980012-639.60025H31.980012l31.980013 639.60025z" fill="#EAEAEA" p-id="1999"></path><path d="M415.740162 991.348407H95.940037c-12.568145 0-25.99975-7.291443-32.843472-17.780887l0.86346 17.780887a31.980012 31.980012 0 0 0 31.980012 31.980013h319.800125a31.980012 31.980012 0 0 0 31.980013-31.980013l0.99138-20.083448c-5.788382 11.768645-19.507808 20.083448-32.971393 20.083448z" fill="" p-id="2000"></path><path d="M447.720175 255.80812H63.960025l31.980012-31.980013h319.800125z" fill="#EAEAEA" p-id="2001"></path><path d="M415.740162-0.03198a95.940037 95.940037 0 0 0-95.940037 95.940037v127.92005h31.980012v-127.92005a63.960025 63.960025 0 0 1 63.960025-63.960025h95.940038v-31.980012h-95.940038zM511.6802 319.768145a31.980012 31.980012 0 0 1-31.980013 31.980012H31.980012a31.980012 31.980012 0 0 1-31.980012-31.980012v-31.980013a31.980012 31.980012 0 0 1 31.980012-31.980012h447.720175a31.980012 31.980012 0 0 1 31.980013 31.980012v31.980013z" fill="#434854" p-id="2002"></path><path d="M478.101187 383.72817l1.599-31.980013H31.980012l1.599001 31.980013z" fill="" p-id="2003"></path><path d="M36.777014 447.688195l12.792005 255.8401h412.542162l12.792005-255.8401z" fill="#60B748" p-id="2004"></path><path d="M255.8401 575.608245m-95.940038 0a95.940037 95.940037 0 1 0 191.880075 0 95.940037 95.940037 0 1 0-191.880075 0Z" fill="#FFFFFF" p-id="2005"></path><path d="M319.800125 191.848095h31.980012v31.980012h-31.980012z" fill="" p-id="2006"></path><path d="M351.780137 959.368395a63.960025 63.960025 0 0 0 63.960025 63.960025h511.6802a63.960025 63.960025 0 0 0 63.960025-63.960025v-63.960025H351.780137v63.960025zM671.580262 511.64822c-176.593629 0-319.800125 47.266458-319.800125 223.860087h639.60025c0-176.593629-143.206496-223.860087-319.800125-223.860087z" fill="#E29460" p-id="2007"></path><path d="M383.76015 735.508307h575.640225v159.900063H383.76015z" fill="#3AAD73" p-id="2008"></path><path d="M1023.3604 815.458339a47.970019 47.970019 0 0 1-47.970019 47.970018h-607.620237a47.970019 47.970019 0 0 1 0-95.940037h607.620237a47.970019 47.970019 0 0 1 47.970019 47.970019z" fill="#EF4D4D" p-id="2009"></path><path d="M975.390381 831.448345h-607.620237a47.842099 47.842099 0 0 1-45.027858-31.980013 47.714179 47.714179 0 0 0-2.942161 15.990007 47.970019 47.970019 0 0 0 47.970019 47.970018h607.620237a47.970019 47.970019 0 0 0 47.970019-47.970018c0-5.628482-1.15128-10.969144-2.942161-15.990007-6.619863 18.612367-24.176889 31.980012-45.027858 31.980013z" fill="" p-id="2010"></path><path d="M673.850843 767.48832l-126.321049 126.321049a31.948032 31.948032 0 0 1-45.219738 0l-126.321049-126.321049H351.780137l152.8005 152.800499a31.948032 31.948032 0 0 0 45.219738 0l152.800499-152.800499h-28.750031z" fill="" p-id="2011"></path><path d="M502.310056 893.841349a31.948032 31.948032 0 0 0 45.219738 0l126.321049-126.321049h-297.861836l126.321049 126.321049zM727.769144 767.48832l62.361025 62.361024a31.948032 31.948032 0 0 0 45.219737 0l62.361025-62.361024h-169.941787z" fill="#EDD87E" p-id="2012"></path><path d="M897.710931 767.48832l-62.361025 62.361024a31.948032 31.948032 0 0 1-45.219737 0l-62.361025-62.361024H703.560275l88.840475 88.840475a31.948032 31.948032 0 0 0 45.219737 0l88.840475-88.840475h-28.750031z" fill="" p-id="2013"></path><path d="M815.618239 623.578264m-15.990007 0a15.990006 15.990006 0 1 0 31.980013 0 15.990006 15.990006 0 1 0-31.980013 0Z" fill="" p-id="2014"></path><path d="M719.678201 687.538289m-15.990006 0a15.990006 15.990006 0 1 0 31.980012 0 15.990006 15.990006 0 1 0-31.980012 0Z" fill="" p-id="2015"></path><path d="M655.718176 591.598251m-15.990006 0a15.990006 15.990006 0 1 0 31.980012 0 15.990006 15.990006 0 1 0-31.980012 0Z" fill="" p-id="2016"></path><path d="M527.798126 623.578264m-15.990006 0a15.990006 15.990006 0 1 0 31.980012 0 15.990006 15.990006 0 1 0-31.980012 0Z" fill="" p-id="2017"></path><path d="M351.780137 959.368395v-63.960025h-31.980012v63.960025a63.960025 63.960025 0 0 0 63.960025 63.960025h31.980012a63.960025 63.960025 0 0 1-63.960025-63.960025zM383.76015 863.428357h-15.990006a47.970019 47.970019 0 0 1 0-95.940037h15.990006v-31.980013h-31.980013v31.980013h-15.990006a47.970019 47.970019 0 0 0 0 95.940037h15.990006v31.980013h31.980013v-31.980013zM470.649844 532.946908C386.254591 557.123798 319.800125 617.214241 319.800125 735.508307h31.980012c0-101.31268 43.428857-155.902561 118.230107-190.345034l0.6396-12.216365z" fill="" p-id="2018"></path></svg>