<svg t="1588927056531" class="icon" viewBox="0 0 1024 1024" version="1.1" xmlns="http://www.w3.org/2000/svg" p-id="4645" width="200" height="200"><path d="M128.149333 442.666667l50.133334 427.392C179.84 883.712 193.92 896 208.448 896h607.061333c14.464 0 28.608-12.416 30.186667-25.941333l50.133333-427.392c1.130667-9.706667-4.586667-16-15.36-16H143.509333c-10.730667 0-16.490667 6.378667-15.36 16z m-84.757333 9.941333C36.266667 391.872 82.090667 341.333333 143.509333 341.333333h736.981334c61.397333 0 107.264 50.389333 100.117333 111.274667l-50.133333 427.392c-6.656 56.789333-57.450667 101.333333-114.944 101.333333H208.469333c-57.536 0-108.266667-44.394667-114.944-101.333333l-50.133333-427.392zM213.333333 277.333333a42.666667 42.666667 0 1 1 0-85.333333h597.333334a42.666667 42.666667 0 1 1 0 85.333333H213.333333z m106.666667-149.333333a42.666667 42.666667 0 1 1 0-85.333333h384a42.666667 42.666667 0 1 1 0 85.333333H320z" fill="none" p-id="4646"></path></svg>