<svg t="1588926792171" class="icon" viewBox="0 0 1024 1024" version="1.1" xmlns="http://www.w3.org/2000/svg" p-id="2128" width="200" height="200"><path d="M0 0m64 0l128 0q64 0 64 64l0 896q0 64-64 64l-128 0q-64 0-64-64l0-896q0-64 64-64Z" fill="none" p-id="2129"></path><path d="M768 256m64 0l128 0q64 0 64 64l0 640q0 64-64 64l-128 0q-64 0-64-64l0-640q0-64 64-64Z" fill="none" p-id="2130"></path><path d="M384 384m64 0l128 0q64 0 64 64l0 512q0 64-64 64l-128 0q-64 0-64-64l0-512q0-64 64-64Z" fill="none" p-id="2131"></path></svg>