<svg t="1588958412128" class="icon" viewBox="0 0 1024 1024" version="1.1" xmlns="http://www.w3.org/2000/svg" p-id="4119" width="200" height="200"><path d="M512 853.333333a298.666667 298.666667 0 0 1-298.666667-298.666666 298.666667 298.666667 0 0 1 298.666667-298.666667 298.666667 298.666667 0 0 1 298.666667 298.666667 298.666667 298.666667 0 0 1-298.666667 298.666666m299.946667-538.026666l60.586666-60.586667c-19.2-21.76-38.4-41.386667-60.16-60.16L751.786667 256c-66.133333-53.76-149.333333-85.333333-239.786667-85.333333a384 384 0 0 0-384 384 384 384 0 0 0 384 384c213.333333 0 384-171.946667 384-384 0-90.453333-31.573333-173.653333-84.053333-239.36M469.333333 597.333333h85.333334V341.333333h-85.333334m170.666667-298.666666H384v85.333333h256V42.666667z" fill="none" p-id="4120"></path></svg>