<svg t="1589088274848" class="icon" viewBox="0 0 1024 1024" version="1.1" xmlns="http://www.w3.org/2000/svg" p-id="15156" id="mx_n_1589088274849" width="200" height="200"><path d="M512 64C264.9 64 64 264.9 64 512s200.9 448 448 448 448-200.9 448-448c0.7-247.1-200.2-448-448-448z m0 616c-93.1 0-168-74.9-168-168s74.9-168 168-168 168 74.9 168 168c0.7 93.1-74.9 168-168 168z" fill="#FCD590" p-id="15157" data-spm-anchor-id="a313x.7781069.0.i10" class=""></path><path d="M250.2 330.7l-53.9 14.7c-9.8 2.8-15.4 14-12.6 25.2 2.8 11.2 13.3 18.2 23.1 15.4l53.9-14.7c9.8-2.8 15.4-14 12.6-25.2-2.8-11.2-13.3-18.2-23.1-15.4zM834 401.4c0-12.6-9.1-22.4-21-22.4s-21 9.8-21 22.4v53.2c0 12.6 9.1 22.4 21 22.4s21-9.8 21-22.4v-53.2z" fill="#26A6D1" p-id="15158"></path><path d="M390.9 178.8c-9.1-5.6-20.3-2.8-25.2 6.3l-25.9 51.1c-4.9 9.1-1.4 21.7 7.7 27.3 9.1 5.6 20.3 2.8 25.2-6.3l25.9-51.1c4.2-9.1 1.4-21-7.7-27.3z" fill="#53BCA9" p-id="15159"></path><path d="M696.8 278.9l51.1-29.4c9.1-5.6 21.7-2.1 27.3 7.7 5.6 9.8 2.1 21.7-7 27.3l-51.1 29.4c-9.1 5.6-21.7 2.1-27.3-7.7-5.6-9.8-2.1-22.4 7-27.3z" fill="#E2574C" p-id="15160"></path><path d="M575.7 222.9l-47.6-30.1c-8.4-5.6-11.9-17.5-7-27.3s16.1-12.6 25.2-7l47.6 30.1c8.4 5.6 11.9 17.5 7 27.3-4.9 9.1-16.1 11.9-25.2 7z" fill="#FFFFFF" p-id="15161"></path><path d="M177.1 809.3s49.3-42.9 83.3-39.7c34 3.3 85.5 61.4 123.9 61.4 38.4 0 85.1-64 129.7-61.6 44.6 2.4 89.6 67.1 134.5 61.6 44.9-5.5 96.5-63 121.7-61.7 25.2 1.4 76.7 32.1 77.9 39.7 0 0-35.9 44.5-101.6 84.9-56.2 34.6-135 66-223 66-204.7 0.1-304.8-110.1-346.4-150.6z" fill="#d81e06" p-id="15162" data-spm-anchor-id="a313x.7781069.0.i7" class=""></path><path d="M647.9 765.3l51.1-29.4c9.1-5.6 21.7-2.1 27.3 7.7 5.6 9.8 2.1 21.7-7 27.3l-51.1 29.4c-9.1 5.6-21.7 2.1-27.3-7.7-5.6-9.8-2.1-22.4 7-27.3z" fill="#F28519" p-id="15163"></path><path d="M506.6 818.1L480.7 767c-4.9-9.1-16.1-11.9-25.2-6.3-9.1 5.6-12.6 18.2-7.7 27.3l25.9 51.1c4.9 9.1 16.1 11.9 25.2 6.3 9.1-6.3 11.9-18.2 7.7-27.3z" fill="#EA703B" p-id="15164"></path><path d="M269.1 715.4c-4.9-9.8-1.4-21.7 7-27.3l47.6-30.1c9.1-5.6 20.3-2.8 25.2 7 4.9 9.8 1.4 21.7-7 27.3l-47.6 30.1c-9.1 4.9-20.3 2.1-25.2-7z" fill="#FFFFFF" p-id="15165"></path><path d="M215.1 782.8C139.5 700.7 93.4 591.1 93.4 470.7c0-79.1 19.6-153.3 54.6-217.7-52.5 72.8-83.3 162.4-83.3 259 0 114.9 43.5 219.9 114.9 299.2 3.8-6 13.1-16.6 35.5-28.4z" fill="#EABD7D" p-id="15166"></path><path d="M554.7 932c-134.4 0-255.3-57.5-339.6-149.2-22.3 11.8-31.7 22.4-35.5 28.4 82.1 91.3 201 148.8 333.1 148.8 97.3 0 186.9-30.8 259.7-83.3-65.1 35-139.3 55.3-217.7 55.3z" fill="#d4237a" p-id="15167" data-spm-anchor-id="a313x.7781069.0.i8" class=""></path></svg>