<svg t="1588925030191" class="icon" viewBox="0 0 1024 1024" version="1.1" xmlns="http://www.w3.org/2000/svg" p-id="1749" width="200" height="200"><path d="M292.571429 73.142857c0 40.228571-32.914286 73.142857-73.142858 73.142857H73.142857c-40.228571 0-73.142857-32.914286-73.142857-73.142857s32.914286-73.142857 73.142857-73.142857h146.285714c40.228571 0 73.142857 32.914286 73.142858 73.142857zM585.142857 73.142857c0 40.228571-32.914286 73.142857-73.142857 73.142857s-73.142857-32.914286-73.142857-73.142857 32.914286-73.142857 73.142857-73.142857 73.142857 32.914286 73.142857 73.142857zM1024 73.142857c0 40.228571-32.914286 73.142857-73.142857 73.142857h-146.285714c-40.228571 0-73.142857-32.914286-73.142858-73.142857s32.914286-73.142857 73.142858-73.142857h146.285714c40.228571 0 73.142857 32.914286 73.142857 73.142857zM1024 950.857143c0 40.228571-32.914286 73.142857-73.142857 73.142857H73.142857c-40.228571 0-73.142857-32.914286-73.142857-73.142857s32.914286-73.142857 73.142857-73.142857h877.714286c40.228571 0 73.142857 32.914286 73.142857 73.142857z" p-id="1750" fill="none"></path><path d="M73.142857 1024c-40.228571 0-73.142857-32.914286-73.142857-73.142857V73.142857c0-40.228571 32.914286-73.142857 73.142857-73.142857s73.142857 32.914286 73.142857 73.142857v877.714286c0 40.228571-32.914286 73.142857-73.142857 73.142857zM950.857143 1024c-40.228571 0-73.142857-32.914286-73.142857-73.142857V73.142857c0-40.228571 32.914286-73.142857 73.142857-73.142857s73.142857 32.914286 73.142857 73.142857v877.714286c0 40.228571-32.914286 73.142857-73.142857 73.142857zM615.570286 356.937143L460.288 512.219429l-51.858286-51.858286A73.069714 73.069714 0 1 0 305.005714 563.785143l103.424 103.424a73.142857 73.142857 0 0 0 103.716572 0L718.994286 460.361143A73.069714 73.069714 0 1 0 615.570286 356.937143z" p-id="1751" fill="none"></path></svg>